<mxfile host="app.diagrams.net" modified="2023-04-26T09:29:49.916Z" agent="Mozilla/5.0 (Windows NT 10.0; Win64; x64) AppleWebKit/537.36 (KHTML, like Gecko) Chrome/112.0.0.0 Safari/537.36" version="21.1.9" etag="NHFls4ooq76XnQ10rZVn" type="github">
  <diagram name="第 1 页" id="eg49ZaoTi7A60mhF3NfQ">
    <mxGraphModel>
      <root>
        <mxCell id="0" />
        <mxCell id="1" parent="0" />
      </root>
    </mxGraphModel>
  </diagram>
</mxfile>
